<?xml version="1.0" encoding="UTF-8"?>
<svg id="Layer_1" xmlns="http://www.w3.org/2000/svg" version="1.1" viewBox="0 0 288.5 315.1000061">
  <!-- Generator: Adobe Illustrator 29.5.0, SVG Export Plug-In . SVG Version: 2.1.0 Build 137)  -->
  <defs>
    <style>
      .st0 {
        fill: #fff;
      }

      .st1 {
        fill: #00e013;
        fill-rule: evenodd;
      }
    </style>
  </defs>
  <g>
    <path d="M22.6000004,295.3999939c5.1000004,0,9-3,10.6000004-7.8999939.2000008-.6000061.7999992-.8999939,1.4000015-.7000122l6.5999985,2.2000122c.5999985.2000122.9000015.8999939.7000008,1.5-3,8.1000061-9.7999992,13.1000061-19.2999992,13.1000061-13.1000023,0-22.6000023-10.3000183-22.6000023-25.1000061s9.5-25.1000061,22.6000004-25.1000061c9.4999981,0,16.3000011,5,19.3000011,13.1000061.2000008.6000061-.0999985,1.2000122-.7000008,1.5l-6.5999985,2.2000122c-.5999985.2000122-1.2000008-.1000061-1.4000015-.7000122-1.7000008-4.8999939-5.5-7.8999939-10.6000004-7.8999939-7.6999998,0-13.1999998,6.7000122-13.1999998,16.8999939-.000001,10.2000122,5.499999,16.8999939,13.1999998,16.8999939Z"/>
    <path d="M67.1999969,286.2999878l-7.2999992,1.5c-3.2999992.7000122-5.7999992,1.7999878-5.7999992,4.7999878,0,2.6000061,1.9000015,4.1000061,4.9000015,4.1000061,4.2000008,0,8.1999969-2.2000122,8.1999969-6.3999939v-4h0ZM45.4000015,293c0-7,5.4000015-10,12.5-11.2999878l9.4000015-1.8999939v-.6000061c0-3.2000122-1.6999969-5.2000122-5.7999992-5.2000122-3.4000015,0-5.2999992,1.3999939-6.2000008,4.1000061-.2000008.5-.7000008.7999878-1.2999992.7000122l-6.0999985-1.2999878c-.7000008-.1000061-1.0999985-.8999939-.7999992-1.5,2.0999985-5.3999939,7.2000008-9.5,14.7999992-9.5,8.7999992,0,14.1000023,4.1000061,14.1000023,12.3999939v15c0,1.6000061.5999985,2.2999878,1.9000015,2.3999939.5999985,0,1.0999985.5,1.0999985,1.1000061v4.6000061c0,.6000061-.4000015,1.1000061-1,1.1000061-5.4000015.5-8.4000015-.7000122-9.8000031-3.5-2.3000031,2.5-5.9000015,4-10.5999985,4-7.0000076-.0000305-12.2000046-4.2000427-12.2000046-10.6000366Z"/>
    <path d="M86.5999985,291.7999878c.5-.3999939,1.1999969-.3999939,1.5999985.1000061,2.4000015,2.8999939,6.1999969,4.7000122,9.9000015,4.7000122,3.3000031,0,6.3000031-1.2000122,6.3000031-4.1000061s-2.8000031-3.2000122-8.5-4.2999878c-5.6999969-1.2000122-12.0999985-2.6000061-12.0999985-10.2999878,0-6.7000122,5.9000015-11.3999939,14.3000031-11.3999939,5.8000031,0,11,2.2999878,13.9000015,5.6000061.4000015.5.4000015,1.1000061,0,1.5l-3.9000015,3.8999939c-.5.5-1.1999969.5-1.5999985,0-2.1999969-2.5-5.3000031-4-8.8000031-4-3.1999969,0-5.1999969,1.3999939-5.1999969,3.6000061,0,2.3999939,2.5,2.8999939,6.9000015,3.7999878,6.0999985,1.2999878,13.6999969,2.6000061,13.6999969,10.7999878,0,7.2999878-6.8000031,11.8999939-15.0999985,11.8999939-6.0999985,0-12.4000015-2.2000122-15.8000031-6.2999878-.4000015-.5-.3000031-1.1000061.0999985-1.5l4.2999954-4.0000305Z"/>
    <path d="M118.6999969,254.1000061h6.5999985c.5999985,0,1.0999985.5,1.0999985,1.1000061v15.7000122c2-2.3999939,5.1999969-4.3999939,9.8000031-4.3999939,7.5,0,12,5.1000061,12,12.8999939v22.3999939c0,.6000061-.5,1.1000061-1.1000061,1.1000061h-6.6000061c-.6000061,0-1.1000061-.5-1.1000061-1.1000061v-19.8999939c0-4.2000122-1.6999969-7.2000122-6-7.2000122-3.5,0-7,2.5-7,7.3999939v19.7000122c0,.6000061-.5,1.1000061-1.0999985,1.1000061h-6.5999985c-.5999985,0-1.0999985-.5-1.0999985-1.1000061v-46.6000061c.0000153-.6000061.5000153-1.1000061,1.1000137-1.1000061Z"/>
    <path d="M180.3000031,284h14.6000061l-7.3000031-19.6000061-7.3000031,19.6000061ZM193.3000031,254.8000031l17.5,46.5999908c.3000031.7000122-.3000031,1.5-1.1000061,1.5h-7.1000061c-.5,0-.8999939-.2999878-1.1000061-.7000122l-3.8000031-10.1000061h-20.5l-3.6999969,10.1000061c-.1999969.5-.6000061.7000122-1.1000061.7000122h-6.8999939c-.8000031,0-1.3000031-.7999878-1.1000061-1.5l17.5-46.6000061c.1999969-.3999939.6000061-.6999969,1.1000061-.6999969h9.1000061c.6000061.0000153,1.0000153.3000031,1.2000122.7000122Z"/>
    <path d="M223.6999969,286.1000061c0,6.2999878,3.6000061,9.8999939,8.3999939,9.8999939,5.6000061,0,8.6999969-4.5,8.6999969-10.8999939,0-6.5-3-10.8999939-8.6999969-10.8999939-4.8000031,0-8.3999939,3.5-8.3999939,9.8999939v2ZM223.8999939,299.2000122v14.7999878c0,.6000061-.5,1.1000061-1.1000061,1.1000061h-6.6000061c-.6000061,0-1.1000061-.5-1.1000061-1.1000061v-45.7000122c0-.6000061.5-1.1000061,1.1000061-1.1000061h6.6000061c.6000061,0,1.1000061.5,1.1000061,1.1000061v2.6000061c2.1999969-2.6000061,5.6000061-4.3999939,10.1000061-4.3999939,9.8999939,0,15.6000061,8.3999939,15.6000061,18.5s-5.6999969,18.6000061-15.6000061,18.6000061c-4.5,0-7.8999939-1.8000183-10.1000061-4.3999939Z"/>
    <path d="M262.6000061,286.1000061c0,6.2999878,3.6000061,9.8999939,8.3999939,9.8999939,5.6000061,0,8.7000122-4.5,8.7000122-10.8999939,0-6.5-3-10.8999939-8.7000122-10.8999939-4.7999878,0-8.3999939,3.5-8.3999939,9.8999939v2ZM262.7999878,299.2000122v14.7999878c0,.6000061-.5,1.1000061-1.1000061,1.1000061h-6.6000061c-.6000061,0-1.1000061-.5-1.1000061-1.1000061v-45.7000122c0-.6000061.5-1.1000061,1.1000061-1.1000061h6.6000061c.6000061,0,1.1000061.5,1.1000061,1.1000061v2.6000061c2.2000122-2.6000061,5.6000061-4.3999939,10.1000061-4.3999939,9.8999939,0,15.6000061,8.3999939,15.6000061,18.5s-5.7000122,18.6000061-15.6000061,18.6000061c-4.5,0-7.8999939-1.8000183-10.1000061-4.3999939Z"/>
  </g>
  <g>
    <path class="st1" d="M112.4349976,0c-21.1100006,0-31.6149979,0-42.9199982,3.4979999-12.4059982,4.4979999-22.2109985,14.2939999-26.7130013,26.6880009-3.6019974,11.394001-3.6019974,21.8889999-3.6019974,42.9790001v63.5699997c0,21.1900024,0,31.5850067,3.5019989,42.9799957,4.5019989,12.3939972,14.3069992,22.1889954,26.7130013,26.6869965,11.4049988,3.5980072,21.909996,3.5980072,42.9199982,3.5980072h63.6299973c21.1100006,0,31.6150055,0,42.9199982-3.5980072,12.4060059-4.4980011,22.2109985-14.2929993,26.7129974-26.6869965,3.602005-11.3950043,3.602005-21.8899994,3.602005-42.9799957v-63.4700012c0-21.0900002,0-31.5849991-3.602005-42.9799995-4.4019928-12.394001-14.2070007-22.1889992-26.6130066-26.6870003-11.3049927-3.5979996-21.7099915-3.5979996-42.9199829-3.5979996h-63.6300049Z"/>
    <path class="st0" d="M152.8540039,94.7549973c22.1109924,4.697998,32.2149963,13.8929977,32.2149963,29.3860016,0,19.3909988-15.8079987,33.6839981-40.5189972,35.2829971l-2.401001,11.4949951c-.1999969,1.098999-1.201004,1.8990021-2.401001,1.8990021h-19.0090027c-1.6009979,0-2.7009964-1.4989929-2.401001-2.9989929l3.0009995-12.7940063c-12.2060013-3.4980011-22.1110001-10.2949982-27.8129959-18.5910034-.6999969-1.098999-.5-2.4989929.5-3.2980042l13.3059998-10.2949982c1.1009979-.9000015,2.7009964-.5999985,3.5019989.5,7.0029984,9.7949982,17.8079987,15.5930023,30.8150024,15.5930023,11.7059937,0,20.5099945-5.6970062,20.5099945-13.8929977,0-6.2969971-4.4019928-9.1959991-19.3090057-12.2939987-25.4120026-5.4970016-35.5169983-14.8929977-35.5169983-30.3860016,0-17.9909973,15.1070023-31.4850006,37.9179993-33.2840004l2.5010071-11.894001c.1999969-1.098999,1.201004-1.8989983,2.401001-1.8989983h18.7089996c1.5010071,0,2.701004,1.3989983,2.401001,2.8989983l-2.901001,13.2939987c9.8049927,2.9990005,17.8079987,8.3959999,22.8110046,15.0930023.8000031,1,.6000061,2.4990005-.3999939,3.2979965l-12.1060028,9.8949966c-1.1009979.9000015-2.6009979.6999969-3.4019928-.4000015-6.2030029-7.5960007-15.8079987-11.8939972-26.3130035-11.8939972-11.7059937,0-19.0090027,5.0979996-19.0090027,12.2939987-.3000031,6.0950165,5.4029846,9.1940155,22.9109955,12.992012Z"/>
  </g>
</svg>